<?xml version="1.0" encoding="iso-8859-1"?>
<!-- Generator: Adobe Illustrator 18.0.0, SVG Export Plug-In . SVG Version: 6.00 Build 0)  -->
<!DOCTYPE svg PUBLIC "-//W3C//DTD SVG 1.1//EN" "http://www.w3.org/Graphics/SVG/1.1/DTD/svg11.dtd">
<svg version="1.1" id="Capa_1" xmlns="http://www.w3.org/2000/svg" xmlns:xlink="http://www.w3.org/1999/xlink" x="0px" y="0px"
	 viewBox="0 0 247.746 247.746" style="enable-background:new 0 0 247.746 247.746;" xml:space="preserve">
<g>
	<path d="M181.518,176.941c-7.312,0-13.26,5.953-13.26,13.27c0,7.306,5.948,13.25,13.26,13.25c7.313,0,13.262-5.944,13.262-13.25
		C194.779,182.895,188.83,176.941,181.518,176.941z M181.518,195.461c-2.92,0-5.26-2.346-5.26-5.25c0-2.91,2.34-5.27,5.26-5.27
		c2.914,0,5.262,2.359,5.262,5.27C186.779,193.115,184.432,195.461,181.518,195.461z"/>
	<path d="M171.272,59.904h20.489c2.761,0,5-2.238,5-5c0-2.762-2.239-5-5-5h-20.489c-2.761,0-5,2.238-5,5
		C166.272,57.666,168.511,59.904,171.272,59.904z"/>
	<path d="M240.246,28.064H122.713H18.334C8.225,28.064,0,36.29,0,46.4v123.297c0,10.116,8.225,18.346,18.334,18.346h52.748v16.639
		H48.397v15h30.185h44.131h117.533c4.142,0,7.5-3.357,7.5-7.5V35.564C247.746,31.422,244.388,28.064,240.246,28.064z M15,75.473
		h100.213v65.154H15V75.473z M130.213,81.729h102.533v79.008H130.213V81.729z M232.746,66.729H130.213V43.064h102.533V66.729z
		 M18.334,43.064h96.879v17.408H15V46.4C15,44.561,16.496,43.064,18.334,43.064z M15,169.697v-14.07h100.213v17.416H78.582H18.334
		C16.496,173.043,15,171.542,15,169.697z M86.082,188.043h29.131v16.639H86.082V188.043z M130.213,204.682v-24.139v-4.807h102.533
		v28.945H130.213z"/>
</g>
<g>
</g>
<g>
</g>
<g>
</g>
<g>
</g>
<g>
</g>
<g>
</g>
<g>
</g>
<g>
</g>
<g>
</g>
<g>
</g>
<g>
</g>
<g>
</g>
<g>
</g>
<g>
</g>
<g>
</g>
</svg>
